<?xml version="1.0" encoding="utf-8"?>
<!-- Generator: Adobe Illustrator 22.0.1, SVG Export Plug-In . SVG Version: 6.00 Build 0)  -->
<svg version="1.1" id="Layer_1" xmlns="http://www.w3.org/2000/svg" xmlns:xlink="http://www.w3.org/1999/xlink" x="0px" y="0px"
	 viewBox="0 0 70.4 70.4" style="enable-background:new 0 0 70.4 70.4;" xml:space="preserve">
<style type="text/css">
	.st0{fill:#FFFFFF;}
</style>
<circle class="st0" cx="44.9" cy="25.6" r="1.9"/>
<circle class="st0" cx="41.5" cy="16.9" r="1.9"/>
<circle class="st0" cx="40.1" cy="11.3" r="1.9"/>
<circle class="st0" cx="39.4" cy="6.8" r="1.9"/>
<circle class="st0" cx="39" cy="1.9" r="1.9"/>
<circle class="st0" cx="48.8" cy="13.1" r="1.9"/>
<circle class="st0" cx="47.2" cy="8.2" r="1.9"/>
<circle class="st0" cx="54.4" cy="9.1" r="1.9"/>
<circle class="st0" cx="44.9" cy="25.6" r="1.9"/>
<circle class="st0" cx="53.6" cy="29" r="1.9"/>
<circle class="st0" cx="59.1" cy="30.3" r="1.9"/>
<circle class="st0" cx="63.6" cy="31" r="1.9"/>
<circle class="st0" cx="68.6" cy="31.4" r="1.9"/>
<circle class="st0" cx="51.2" cy="19.3" r="1.9"/>
<circle class="st0" cx="55.5" cy="14.9" r="1.9"/>
<circle class="st0" cx="57.4" cy="21.6" r="1.9"/>
<circle class="st0" cx="62.2" cy="23.2" r="1.9"/>
<circle class="st0" cx="61.3" cy="16" r="1.9"/>
<circle class="st0" cx="25.6" cy="25.6" r="1.9"/>
<circle class="st0" cx="16.9" cy="29" r="1.9"/>
<circle class="st0" cx="11.4" cy="30.3" r="1.9"/>
<circle class="st0" cx="6.8" cy="31" r="1.9"/>
<circle class="st0" cx="1.9" cy="31.4" r="1.9"/>
<circle class="st0" cx="13.1" cy="21.6" r="1.9"/>
<circle class="st0" cx="8.2" cy="23.2" r="1.9"/>
<circle class="st0" cx="9.1" cy="16" r="1.9"/>
<circle class="st0" cx="25.5" cy="25.6" r="1.9"/>
<circle class="st0" cx="28.9" cy="16.9" r="1.9"/>
<circle class="st0" cx="30.3" cy="11.3" r="1.9"/>
<circle class="st0" cx="31" cy="6.8" r="1.9"/>
<circle class="st0" cx="31.4" cy="1.9" r="1.9"/>
<circle class="st0" cx="19.2" cy="19.3" r="1.9"/>
<circle class="st0" cx="14.9" cy="14.9" r="1.9"/>
<circle class="st0" cx="21.6" cy="13.1" r="1.9"/>
<circle class="st0" cx="23.2" cy="8.2" r="1.9"/>
<circle class="st0" cx="16" cy="9.1" r="1.9"/>
<circle class="st0" cx="44.9" cy="44.9" r="1.9"/>
<circle class="st0" cx="41.5" cy="53.6" r="1.9"/>
<circle class="st0" cx="40.1" cy="59.1" r="1.9"/>
<circle class="st0" cx="39.4" cy="63.6" r="1.9"/>
<circle class="st0" cx="39" cy="68.6" r="1.9"/>
<circle class="st0" cx="48.8" cy="57.3" r="1.9"/>
<circle class="st0" cx="47.2" cy="62.2" r="1.9"/>
<circle class="st0" cx="54.4" cy="61.3" r="1.9"/>
<circle class="st0" cx="44.9" cy="44.9" r="1.9"/>
<circle class="st0" cx="53.6" cy="41.5" r="1.9"/>
<circle class="st0" cx="59.1" cy="40.1" r="1.9"/>
<circle class="st0" cx="63.6" cy="39.4" r="1.9"/>
<circle class="st0" cx="68.6" cy="39.1" r="1.9"/>
<circle class="st0" cx="51.2" cy="51.2" r="1.9"/>
<circle class="st0" cx="55.5" cy="55.5" r="1.9"/>
<circle class="st0" cx="57.3" cy="48.9" r="1.9"/>
<circle class="st0" cx="62.2" cy="47.2" r="1.9"/>
<circle class="st0" cx="61.3" cy="54.4" r="1.9"/>
<circle class="st0" cx="25.6" cy="44.8" r="1.9"/>
<circle class="st0" cx="16.9" cy="41.5" r="1.9"/>
<circle class="st0" cx="11.3" cy="40.1" r="1.9"/>
<circle class="st0" cx="6.8" cy="39.4" r="1.9"/>
<circle class="st0" cx="1.9" cy="39.1" r="1.9"/>
<circle class="st0" cx="13.1" cy="48.9" r="1.9"/>
<circle class="st0" cx="8.2" cy="47.2" r="1.9"/>
<circle class="st0" cx="9.1" cy="54.4" r="1.9"/>
<circle class="st0" cx="25.5" cy="44.9" r="1.9"/>
<circle class="st0" cx="28.9" cy="53.6" r="1.9"/>
<circle class="st0" cx="30.3" cy="59.1" r="1.9"/>
<circle class="st0" cx="31" cy="63.6" r="1.9"/>
<circle class="st0" cx="31.4" cy="68.6" r="1.9"/>
<circle class="st0" cx="19.2" cy="51.2" r="1.9"/>
<circle class="st0" cx="14.9" cy="55.5" r="1.9"/>
<circle class="st0" cx="21.5" cy="57.3" r="1.9"/>
<circle class="st0" cx="23.2" cy="62.2" r="1.9"/>
<circle class="st0" cx="16" cy="61.3" r="1.9"/>
</svg>
